<mxfile host="app.diagrams.net" modified="2023-10-20T07:48:39.053Z" agent="Mozilla/5.0 (Macintosh; Intel Mac OS X 10_15_7) AppleWebKit/537.36 (KHTML, like Gecko) Chrome/102.0.5005.61 Safari/537.36" etag="eh4JSkeMNhkE3IjICbcs" version="21.6.5" type="device">
  <diagram id="C5RBs43oDa-KdzZeNtuy" name="Page-1">
    <mxGraphModel dx="1053" dy="607" grid="1" gridSize="10" guides="1" tooltips="1" connect="1" arrows="1" fold="1" page="1" pageScale="1" pageWidth="827" pageHeight="1169" math="0" shadow="0">
      <root>
        <mxCell id="WIyWlLk6GJQsqaUBKTNV-0" />
        <mxCell id="WIyWlLk6GJQsqaUBKTNV-1" parent="WIyWlLk6GJQsqaUBKTNV-0" />
        <mxCell id="CbuRB8H8sCCOuhlkq7PC-52" value="Start/End of the Sequence" style="rounded=1;whiteSpace=wrap;html=1;fontSize=12;glass=0;strokeWidth=1;shadow=0;strokeColor=#FF0000;" parent="WIyWlLk6GJQsqaUBKTNV-1" vertex="1">
          <mxGeometry x="90" y="250" width="120" height="40" as="geometry" />
        </mxCell>
        <mxCell id="CbuRB8H8sCCOuhlkq7PC-53" value="Processes/Actions" style="rounded=0;whiteSpace=wrap;html=1;fontSize=12;glass=0;strokeWidth=1;shadow=0;" parent="WIyWlLk6GJQsqaUBKTNV-1" vertex="1">
          <mxGeometry x="90" y="250" width="120" height="40" as="geometry" />
        </mxCell>
        <mxCell id="CbuRB8H8sCCOuhlkq7PC-54" value="Decisions" style="rhombus;whiteSpace=wrap;html=1;" parent="WIyWlLk6GJQsqaUBKTNV-1" vertex="1">
          <mxGeometry x="110" y="300" width="80" height="70" as="geometry" />
        </mxCell>
        <mxCell id="CbuRB8H8sCCOuhlkq7PC-56" value="" style="shape=partialRectangle;whiteSpace=wrap;html=1;bottom=1;right=1;left=1;top=0;fillColor=none;routingCenterX=-0.5;rotation=90;" parent="WIyWlLk6GJQsqaUBKTNV-1" vertex="1">
          <mxGeometry x="115" y="440" width="70" height="40" as="geometry" />
        </mxCell>
        <mxCell id="CbuRB8H8sCCOuhlkq7PC-57" value="Additional Information" style="text;html=1;strokeColor=none;fillColor=none;align=center;verticalAlign=middle;whiteSpace=wrap;rounded=0;" parent="WIyWlLk6GJQsqaUBKTNV-1" vertex="1">
          <mxGeometry x="120" y="390" width="60" height="30" as="geometry" />
        </mxCell>
        <mxCell id="CbuRB8H8sCCOuhlkq7PC-66" value="" style="verticalLabelPosition=bottom;verticalAlign=top;html=1;shape=card;whiteSpace=wrap;size=20;arcSize=12;align=center;" parent="WIyWlLk6GJQsqaUBKTNV-1" vertex="1">
          <mxGeometry x="60" y="40" width="160" height="90" as="geometry" />
        </mxCell>
        <mxCell id="CbuRB8H8sCCOuhlkq7PC-67" value="Main Flow Version B" style="text;html=1;strokeColor=none;fillColor=none;align=center;verticalAlign=middle;whiteSpace=wrap;rounded=0;" parent="WIyWlLk6GJQsqaUBKTNV-1" vertex="1">
          <mxGeometry x="110" y="70" width="60" height="30" as="geometry" />
        </mxCell>
        <mxCell id="CbuRB8H8sCCOuhlkq7PC-68" value="&lt;b&gt;Legend:&lt;/b&gt;" style="text;html=1;strokeColor=none;fillColor=none;align=center;verticalAlign=middle;whiteSpace=wrap;rounded=0;" parent="WIyWlLk6GJQsqaUBKTNV-1" vertex="1">
          <mxGeometry x="120" y="160" width="60" height="30" as="geometry" />
        </mxCell>
        <mxCell id="CbuRB8H8sCCOuhlkq7PC-69" value="Not completely resolved Problems&amp;nbsp;" style="rounded=1;whiteSpace=wrap;html=1;fontSize=12;glass=0;strokeWidth=1;shadow=0;strokeColor=#FF0000;" parent="WIyWlLk6GJQsqaUBKTNV-1" vertex="1">
          <mxGeometry x="90" y="200" width="120" height="40" as="geometry" />
        </mxCell>
        <mxCell id="LhSZNDpT_gtZKrWg9iD4-0" value="DHBW Mail Server&amp;nbsp;" style="shape=cylinder3;whiteSpace=wrap;html=1;boundedLbl=1;backgroundOutline=1;size=15;" vertex="1" parent="WIyWlLk6GJQsqaUBKTNV-1">
          <mxGeometry x="270" y="40" width="100" height="100" as="geometry" />
        </mxCell>
        <mxCell id="LhSZNDpT_gtZKrWg9iD4-1" value="" style="outlineConnect=0;dashed=0;verticalLabelPosition=bottom;verticalAlign=top;align=center;html=1;shape=mxgraph.aws3.management_console;fillColor=#D2D3D3;gradientColor=none;" vertex="1" parent="WIyWlLk6GJQsqaUBKTNV-1">
          <mxGeometry x="960" y="50" width="80" height="86" as="geometry" />
        </mxCell>
        <mxCell id="LhSZNDpT_gtZKrWg9iD4-4" value="Client" style="text;html=1;strokeColor=none;fillColor=none;align=center;verticalAlign=middle;whiteSpace=wrap;rounded=0;" vertex="1" parent="WIyWlLk6GJQsqaUBKTNV-1">
          <mxGeometry x="970" y="136" width="60" height="30" as="geometry" />
        </mxCell>
        <mxCell id="LhSZNDpT_gtZKrWg9iD4-5" value="New Mail received" style="rounded=1;whiteSpace=wrap;html=1;fontSize=12;glass=0;strokeWidth=1;shadow=0;" vertex="1" parent="WIyWlLk6GJQsqaUBKTNV-1">
          <mxGeometry x="940" y="206" width="120" height="40" as="geometry" />
        </mxCell>
        <mxCell id="LhSZNDpT_gtZKrWg9iD4-8" value="" style="shape=flexArrow;endArrow=classic;html=1;rounded=0;entryX=0.5;entryY=0;entryDx=0;entryDy=0;" edge="1" parent="WIyWlLk6GJQsqaUBKTNV-1" target="LhSZNDpT_gtZKrWg9iD4-5">
          <mxGeometry width="50" height="50" relative="1" as="geometry">
            <mxPoint x="1000" y="166" as="sourcePoint" />
            <mxPoint x="900" y="166" as="targetPoint" />
          </mxGeometry>
        </mxCell>
        <mxCell id="LhSZNDpT_gtZKrWg9iD4-10" value="Mail &lt;br&gt;relevant?" style="rhombus;whiteSpace=wrap;html=1;" vertex="1" parent="WIyWlLk6GJQsqaUBKTNV-1">
          <mxGeometry x="960" y="286" width="80" height="80" as="geometry" />
        </mxCell>
        <mxCell id="LhSZNDpT_gtZKrWg9iD4-11" value="" style="shape=flexArrow;endArrow=classic;html=1;rounded=0;entryX=0.5;entryY=0;entryDx=0;entryDy=0;" edge="1" parent="WIyWlLk6GJQsqaUBKTNV-1" target="LhSZNDpT_gtZKrWg9iD4-10">
          <mxGeometry width="50" height="50" relative="1" as="geometry">
            <mxPoint x="999.5" y="245" as="sourcePoint" />
            <mxPoint x="999.5" y="275" as="targetPoint" />
          </mxGeometry>
        </mxCell>
        <mxCell id="LhSZNDpT_gtZKrWg9iD4-13" value="Ignore Mail" style="rounded=0;whiteSpace=wrap;html=1;fontSize=12;glass=0;strokeWidth=1;shadow=0;" vertex="1" parent="WIyWlLk6GJQsqaUBKTNV-1">
          <mxGeometry x="260" y="306" width="120" height="40" as="geometry" />
        </mxCell>
        <mxCell id="LhSZNDpT_gtZKrWg9iD4-14" value="" style="shape=flexArrow;endArrow=classic;html=1;rounded=0;" edge="1" parent="WIyWlLk6GJQsqaUBKTNV-1">
          <mxGeometry width="50" height="50" relative="1" as="geometry">
            <mxPoint x="950" y="325.44" as="sourcePoint" />
            <mxPoint x="390" y="325" as="targetPoint" />
          </mxGeometry>
        </mxCell>
        <mxCell id="LhSZNDpT_gtZKrWg9iD4-15" value="No" style="text;html=1;strokeColor=none;fillColor=none;align=center;verticalAlign=middle;whiteSpace=wrap;rounded=0;" vertex="1" parent="WIyWlLk6GJQsqaUBKTNV-1">
          <mxGeometry x="650" y="286" width="60" height="30" as="geometry" />
        </mxCell>
        <mxCell id="LhSZNDpT_gtZKrWg9iD4-16" value="" style="shape=flexArrow;endArrow=classic;html=1;rounded=0;entryX=0.5;entryY=1;entryDx=0;entryDy=0;entryPerimeter=0;" edge="1" parent="WIyWlLk6GJQsqaUBKTNV-1" target="LhSZNDpT_gtZKrWg9iD4-0">
          <mxGeometry width="50" height="50" relative="1" as="geometry">
            <mxPoint x="320" y="304.5" as="sourcePoint" />
            <mxPoint x="180" y="304.5" as="targetPoint" />
          </mxGeometry>
        </mxCell>
        <mxCell id="LhSZNDpT_gtZKrWg9iD4-18" value="" style="shape=flexArrow;endArrow=classic;html=1;rounded=0;entryX=0.5;entryY=0;entryDx=0;entryDy=0;" edge="1" parent="WIyWlLk6GJQsqaUBKTNV-1">
          <mxGeometry width="50" height="50" relative="1" as="geometry">
            <mxPoint x="999.5" y="375" as="sourcePoint" />
            <mxPoint x="1000" y="416" as="targetPoint" />
          </mxGeometry>
        </mxCell>
        <mxCell id="LhSZNDpT_gtZKrWg9iD4-19" value="Extract attachement .jpg, .png" style="rounded=0;whiteSpace=wrap;html=1;fontSize=12;glass=0;strokeWidth=1;shadow=0;" vertex="1" parent="WIyWlLk6GJQsqaUBKTNV-1">
          <mxGeometry x="940" y="426" width="120" height="40" as="geometry" />
        </mxCell>
        <mxCell id="LhSZNDpT_gtZKrWg9iD4-20" value="" style="shape=flexArrow;endArrow=classic;html=1;rounded=0;entryX=0.5;entryY=0;entryDx=0;entryDy=0;" edge="1" parent="WIyWlLk6GJQsqaUBKTNV-1">
          <mxGeometry width="50" height="50" relative="1" as="geometry">
            <mxPoint x="999.5" y="476" as="sourcePoint" />
            <mxPoint x="1000" y="517" as="targetPoint" />
          </mxGeometry>
        </mxCell>
        <mxCell id="LhSZNDpT_gtZKrWg9iD4-22" value="Open CV Analyzes Signature List" style="rounded=0;whiteSpace=wrap;html=1;fontSize=12;glass=0;strokeWidth=1;shadow=0;strokeColor=#FF3333;" vertex="1" parent="WIyWlLk6GJQsqaUBKTNV-1">
          <mxGeometry x="940" y="526" width="120" height="40" as="geometry" />
        </mxCell>
        <mxCell id="LhSZNDpT_gtZKrWg9iD4-23" value="" style="shape=flexArrow;endArrow=classic;html=1;rounded=0;entryX=0.5;entryY=0;entryDx=0;entryDy=0;" edge="1" parent="WIyWlLk6GJQsqaUBKTNV-1">
          <mxGeometry width="50" height="50" relative="1" as="geometry">
            <mxPoint x="999.5" y="586" as="sourcePoint" />
            <mxPoint x="1000" y="627" as="targetPoint" />
          </mxGeometry>
        </mxCell>
        <mxCell id="LhSZNDpT_gtZKrWg9iD4-28" value="Errors in Signature &lt;br&gt;List" style="rhombus;whiteSpace=wrap;html=1;" vertex="1" parent="WIyWlLk6GJQsqaUBKTNV-1">
          <mxGeometry x="960" y="636" width="80" height="80" as="geometry" />
        </mxCell>
        <mxCell id="LhSZNDpT_gtZKrWg9iD4-29" value="Signal to frontend, containing error&amp;nbsp;" style="rounded=0;whiteSpace=wrap;html=1;fontSize=12;glass=0;strokeWidth=1;shadow=0;" vertex="1" parent="WIyWlLk6GJQsqaUBKTNV-1">
          <mxGeometry x="680" y="656" width="120" height="40" as="geometry" />
        </mxCell>
        <mxCell id="LhSZNDpT_gtZKrWg9iD4-30" value="" style="shape=flexArrow;endArrow=classic;html=1;rounded=0;" edge="1" parent="WIyWlLk6GJQsqaUBKTNV-1">
          <mxGeometry width="50" height="50" relative="1" as="geometry">
            <mxPoint x="947" y="676" as="sourcePoint" />
            <mxPoint x="807" y="676" as="targetPoint" />
          </mxGeometry>
        </mxCell>
        <mxCell id="LhSZNDpT_gtZKrWg9iD4-31" value="Yes" style="text;html=1;strokeColor=none;fillColor=none;align=center;verticalAlign=middle;whiteSpace=wrap;rounded=0;" vertex="1" parent="WIyWlLk6GJQsqaUBKTNV-1">
          <mxGeometry x="860" y="636" width="60" height="30" as="geometry" />
        </mxCell>
        <mxCell id="LhSZNDpT_gtZKrWg9iD4-32" value="User Intervention" style="rounded=0;whiteSpace=wrap;html=1;fontSize=12;glass=0;strokeWidth=1;shadow=0;strokeColor=#FF3333;" vertex="1" parent="WIyWlLk6GJQsqaUBKTNV-1">
          <mxGeometry x="680" y="776" width="120" height="40" as="geometry" />
        </mxCell>
        <mxCell id="LhSZNDpT_gtZKrWg9iD4-33" value="" style="shape=flexArrow;endArrow=classic;html=1;rounded=0;entryX=0.5;entryY=0;entryDx=0;entryDy=0;" edge="1" parent="WIyWlLk6GJQsqaUBKTNV-1">
          <mxGeometry width="50" height="50" relative="1" as="geometry">
            <mxPoint x="739.5" y="726" as="sourcePoint" />
            <mxPoint x="740" y="767" as="targetPoint" />
          </mxGeometry>
        </mxCell>
        <mxCell id="LhSZNDpT_gtZKrWg9iD4-34" value="Actualize Database" style="rounded=0;whiteSpace=wrap;html=1;fontSize=12;glass=0;strokeWidth=1;shadow=0;strokeColor=#000000;" vertex="1" parent="WIyWlLk6GJQsqaUBKTNV-1">
          <mxGeometry x="940" y="776" width="120" height="40" as="geometry" />
        </mxCell>
        <mxCell id="LhSZNDpT_gtZKrWg9iD4-35" value="" style="shape=flexArrow;endArrow=classic;html=1;rounded=0;entryX=0.5;entryY=0;entryDx=0;entryDy=0;" edge="1" parent="WIyWlLk6GJQsqaUBKTNV-1">
          <mxGeometry width="50" height="50" relative="1" as="geometry">
            <mxPoint x="999.5" y="726" as="sourcePoint" />
            <mxPoint x="1000" y="767" as="targetPoint" />
          </mxGeometry>
        </mxCell>
        <mxCell id="LhSZNDpT_gtZKrWg9iD4-36" value="Move &amp;amp; Mark Mail as Done&amp;nbsp;" style="rounded=0;whiteSpace=wrap;html=1;fontSize=12;glass=0;strokeWidth=1;shadow=0;strokeColor=#000000;" vertex="1" parent="WIyWlLk6GJQsqaUBKTNV-1">
          <mxGeometry x="940" y="876" width="120" height="40" as="geometry" />
        </mxCell>
        <mxCell id="LhSZNDpT_gtZKrWg9iD4-38" value="" style="shape=flexArrow;endArrow=classic;html=1;rounded=0;entryX=0.5;entryY=0;entryDx=0;entryDy=0;" edge="1" parent="WIyWlLk6GJQsqaUBKTNV-1">
          <mxGeometry width="50" height="50" relative="1" as="geometry">
            <mxPoint x="999.5" y="825" as="sourcePoint" />
            <mxPoint x="1000" y="866" as="targetPoint" />
          </mxGeometry>
        </mxCell>
        <mxCell id="LhSZNDpT_gtZKrWg9iD4-40" value="" style="shape=flexArrow;endArrow=classic;html=1;rounded=0;entryX=0.5;entryY=0;entryDx=0;entryDy=0;" edge="1" parent="WIyWlLk6GJQsqaUBKTNV-1">
          <mxGeometry width="50" height="50" relative="1" as="geometry">
            <mxPoint x="999.5" y="936" as="sourcePoint" />
            <mxPoint x="1000" y="977" as="targetPoint" />
          </mxGeometry>
        </mxCell>
        <mxCell id="LhSZNDpT_gtZKrWg9iD4-41" value="Pull Mails from DHBW Server&amp;nbsp;" style="rounded=0;whiteSpace=wrap;html=1;fontSize=12;glass=0;strokeWidth=1;shadow=0;strokeColor=#000000;" vertex="1" parent="WIyWlLk6GJQsqaUBKTNV-1">
          <mxGeometry x="940" y="996" width="120" height="40" as="geometry" />
        </mxCell>
        <mxCell id="LhSZNDpT_gtZKrWg9iD4-42" value="Mails with certain reference will be forwared to a seperate mail server" style="rounded=0;whiteSpace=wrap;html=1;fontSize=12;glass=0;strokeWidth=1;shadow=0;" vertex="1" parent="WIyWlLk6GJQsqaUBKTNV-1">
          <mxGeometry x="440" y="57.5" width="120" height="65" as="geometry" />
        </mxCell>
        <mxCell id="LhSZNDpT_gtZKrWg9iD4-43" value="" style="shape=flexArrow;endArrow=classic;html=1;rounded=0;" edge="1" parent="WIyWlLk6GJQsqaUBKTNV-1">
          <mxGeometry width="50" height="50" relative="1" as="geometry">
            <mxPoint x="390" y="90" as="sourcePoint" />
            <mxPoint x="430" y="90" as="targetPoint" />
          </mxGeometry>
        </mxCell>
        <mxCell id="LhSZNDpT_gtZKrWg9iD4-44" value="Mail Server X" style="shape=cylinder3;whiteSpace=wrap;html=1;boundedLbl=1;backgroundOutline=1;size=15;" vertex="1" parent="WIyWlLk6GJQsqaUBKTNV-1">
          <mxGeometry x="630" y="43" width="100" height="100" as="geometry" />
        </mxCell>
        <mxCell id="LhSZNDpT_gtZKrWg9iD4-45" value="" style="shape=flexArrow;endArrow=classic;html=1;rounded=0;" edge="1" parent="WIyWlLk6GJQsqaUBKTNV-1">
          <mxGeometry width="50" height="50" relative="1" as="geometry">
            <mxPoint x="579" y="92.44" as="sourcePoint" />
            <mxPoint x="619" y="92.44" as="targetPoint" />
          </mxGeometry>
        </mxCell>
        <mxCell id="LhSZNDpT_gtZKrWg9iD4-47" value="Client pulls new mails from Server" style="rounded=0;whiteSpace=wrap;html=1;fontSize=12;glass=0;strokeWidth=1;shadow=0;" vertex="1" parent="WIyWlLk6GJQsqaUBKTNV-1">
          <mxGeometry x="781" y="60.5" width="120" height="65" as="geometry" />
        </mxCell>
        <mxCell id="LhSZNDpT_gtZKrWg9iD4-48" value="" style="shape=flexArrow;endArrow=classic;html=1;rounded=0;" edge="1" parent="WIyWlLk6GJQsqaUBKTNV-1">
          <mxGeometry width="50" height="50" relative="1" as="geometry">
            <mxPoint x="737" y="92" as="sourcePoint" />
            <mxPoint x="777" y="92" as="targetPoint" />
          </mxGeometry>
        </mxCell>
        <mxCell id="LhSZNDpT_gtZKrWg9iD4-49" value="" style="shape=flexArrow;endArrow=classic;html=1;rounded=0;" edge="1" parent="WIyWlLk6GJQsqaUBKTNV-1">
          <mxGeometry width="50" height="50" relative="1" as="geometry">
            <mxPoint x="910" y="92.44" as="sourcePoint" />
            <mxPoint x="950" y="92.44" as="targetPoint" />
          </mxGeometry>
        </mxCell>
        <mxCell id="LhSZNDpT_gtZKrWg9iD4-50" value="Yes" style="text;html=1;strokeColor=none;fillColor=none;align=center;verticalAlign=middle;whiteSpace=wrap;rounded=0;" vertex="1" parent="WIyWlLk6GJQsqaUBKTNV-1">
          <mxGeometry x="940" y="370" width="60" height="30" as="geometry" />
        </mxCell>
        <mxCell id="LhSZNDpT_gtZKrWg9iD4-51" value="" style="shape=flexArrow;endArrow=classic;html=1;rounded=0;" edge="1" parent="WIyWlLk6GJQsqaUBKTNV-1">
          <mxGeometry width="50" height="50" relative="1" as="geometry">
            <mxPoint x="810" y="795.44" as="sourcePoint" />
            <mxPoint x="930" y="795.44" as="targetPoint" />
          </mxGeometry>
        </mxCell>
      </root>
    </mxGraphModel>
  </diagram>
</mxfile>
